<?xml version="1.0" standalone="no"?>
<!DOCTYPE svg PUBLIC "-//W3C//DTD SVG 20010904//EN"
 "http://www.w3.org/TR/2001/REC-SVG-20010904/DTD/svg10.dtd">
<svg version="1.0" xmlns="http://www.w3.org/2000/svg"
 width="4000.000000pt" height="4000.000000pt" viewBox="0 0 4000.000000 4000.000000"
 preserveAspectRatio="xMidYMid meet">

<g transform="translate(0.000000,4000.000000) scale(0.100000,-0.100000)"
fill="#000000" stroke="none">
<path d="M20805 35304 c-38 -2 -173 -8 -300 -14 -786 -36 -1494 -130 -1965
-260 -848 -234 -1556 -737 -2025 -1440 -142 -213 -281 -485 -351 -685 -15 -44
-29 -82 -30 -83 -1 -2 -19 15 -39 37 -144 159 -485 172 -954 36 -280 -81 -593
-212 -1011 -421 -319 -160 -474 -254 -647 -392 -709 -566 -1145 -1551 -1267
-2862 -22 -229 -16 -52 -217 -5995 -99 -2942 -183 -5352 -185 -5354 -3 -3 -19
1 -37 8 -58 24 -73 24 -100 -1 -23 -20 -31 -43 -56 -173 -68 -341 -96 -621
-88 -870 6 -175 11 -204 72 -460 59 -248 59 -243 -23 -585 -186 -772 -302
-1400 -342 -1847 -15 -160 -8 -460 14 -598 33 -209 30 -732 -4 -794 -4 -8 -79
-51 -166 -95 -129 -66 -161 -86 -168 -108 -8 -24 2 -46 92 -195 56 -92 102
-172 102 -178 1 -5 -54 -23 -121 -40 -102 -25 -126 -34 -142 -56 -28 -39 -16
-62 91 -171 92 -94 94 -98 71 -107 -34 -13 -86 -68 -93 -99 -3 -15 -9 -243
-12 -507 -13 -936 43 -1653 166 -2153 16 -68 30 -127 30 -133 0 -11 -153 65
-259 129 -42 24 -79 46 -83 48 -3 2 18 -49 47 -114 107 -238 164 -423 208
-672 18 -107 21 -164 22 -395 0 -337 -19 -483 -124 -965 -84 -387 -109 -574
-92 -694 34 -239 242 -387 636 -452 86 -15 165 -19 366 -19 l256 0 29 -55
c120 -228 320 -456 511 -581 227 -148 501 -168 706 -53 242 135 404 506 433
989 l7 115 41 11 c165 42 279 91 380 163 132 94 229 232 262 372 34 146 -3
250 -138 384 -139 139 -315 252 -783 504 -280 151 -369 204 -310 182 11 -5 64
-23 118 -42 223 -79 333 -130 469 -218 160 -104 397 -212 724 -329 244 -88
667 -219 961 -297 l82 -22 672 -977 c370 -537 673 -977 675 -979 5 -8 353 -32
537 -39 l197 -6 -265 -523 c-146 -288 -265 -526 -265 -529 0 -3 31 -5 68 -5
62 0 70 2 79 22 8 19 41 32 184 75 l174 52 112 -111 111 -111 -16 -34 -16 -34
36 -36 36 -36 72 144 c40 79 185 366 322 637 l250 492 293 0 292 0 6 -67 c14
-141 -1 -604 -19 -622 -2 -2 -17 -4 -34 -4 -22 0 -30 -5 -30 -19 0 -11 -7 -18
-18 -18 -11 0 -21 -11 -27 -32 -8 -24 -24 -40 -62 -63 -29 -16 -56 -39 -59
-49 -4 -11 -20 -30 -36 -44 -36 -30 -72 -103 -77 -154 -1 -5 -7 -8 -14 -8 -7
0 -17 -15 -22 -32 -7 -23 -17 -34 -33 -36 -16 -3 -22 -10 -21 -25 7 -80 -4
-96 -69 -102 -26 -2 -92 -36 -92 -47 0 -13 -73 -27 -115 -21 -37 5 -44 2 -66
-24 -25 -30 -75 -57 -164 -88 -27 -10 -54 -22 -60 -26 -5 -5 -35 -9 -67 -9
-39 0 -72 -7 -97 -20 -21 -10 -42 -16 -45 -12 -4 3 -11 0 -16 -8 -10 -16 -84
-17 -161 -4 -24 4 -47 1 -67 -10 -17 -9 -54 -16 -81 -16 -49 0 -131 -25 -131
-40 0 -4 -30 -10 -67 -13 -38 -3 -83 -12 -101 -20 l-33 -14 83 -24 c70 -20
104 -24 218 -23 122 0 148 4 270 36 94 25 176 40 270 48 333 27 524 79 830
225 228 109 286 131 306 114 21 -17 140 101 157 155 34 113 -5 695 -74 1104
l-11 62 -42 1 -41 0 25 16 c46 30 139 131 181 195 131 203 250 564 316 962
l27 166 30 -5 c17 -2 123 -14 236 -26 113 -11 206 -22 207 -23 2 -1 18 -144
38 -317 36 -329 54 -420 105 -541 54 -129 167 -258 268 -306 21 -10 31 -21 28
-31 -3 -9 -8 -46 -12 -84 -4 -43 -11 -67 -19 -67 -20 0 -25 -83 -25 -420 0
-455 21 -686 70 -766 30 -48 129 -129 142 -116 17 17 97 -12 298 -108 260
-123 437 -178 732 -227 144 -24 659 -23 833 1 118 17 202 33 178 35 -7 1 -13
8 -13 17 0 12 -6 15 -22 10 -13 -4 -42 -8 -65 -9 -24 -1 -43 -6 -43 -12 0 -6
-3 -5 -8 1 -16 26 -89 47 -172 50 -106 4 -170 13 -170 25 0 5 -9 9 -20 9 -11
0 -20 -7 -20 -15 0 -21 -58 -8 -88 19 -21 19 -36 21 -145 21 -128 1 -152 7
-206 54 -17 15 -38 21 -72 21 -31 0 -60 7 -81 20 -18 11 -43 20 -55 20 -25 0
-43 26 -43 63 0 19 -6 26 -30 31 -23 4 -34 14 -41 35 -6 17 -18 31 -27 33 -12
2 -17 14 -17 38 0 34 -1 35 -36 35 -48 0 -66 18 -115 110 -21 41 -44 75 -50
75 -13 0 -49 39 -57 63 -8 20 -64 47 -100 47 -13 0 -27 4 -32 9 -6 5 -45 12
-87 15 -78 5 -106 16 -157 64 -13 12 -29 22 -36 22 -28 0 -70 425 -63 635 l3
100 751 3 750 2 17 -35 c9 -20 17 -42 17 -50 0 -12 -102 -147 -149 -197 -3 -4
-128 33 -276 81 -270 89 -270 89 -292 128 -13 21 -24 42 -26 47 -1 5 -17 1
-35 -8 l-32 -16 327 -648 c179 -356 328 -649 330 -652 2 -2 20 12 39 32 35 35
36 36 20 66 l-16 30 110 115 110 114 172 -51 c140 -42 175 -56 183 -74 9 -20
17 -22 82 -22 l73 0 -285 570 -285 570 306 0 306 0 -51 94 -50 95 82 71 c45
39 99 97 120 128 99 149 423 865 687 1517 81 202 88 211 210 274 155 80 412
161 780 246 251 58 383 104 588 204 406 200 883 531 1404 973 l136 116 13 -30
c11 -28 10 -35 -10 -67 -39 -64 -108 -215 -120 -263 -25 -105 -10 -192 44
-255 49 -58 47 -85 -13 -143 -64 -62 -173 -128 -501 -304 -478 -257 -667 -381
-807 -528 -40 -42 -84 -101 -100 -134 -25 -51 -29 -70 -28 -139 3 -280 259
-536 622 -622 l72 -17 0 -46 c0 -85 21 -264 45 -386 70 -347 229 -605 431
-695 114 -51 292 -65 421 -33 271 67 562 331 750 679 l32 60 233 1 c315 2 505
29 692 100 102 40 210 116 262 187 61 83 78 146 77 287 -1 137 -15 227 -92
590 -105 489 -131 681 -131 965 0 397 76 735 249 1108 29 64 36 85 23 78 -9
-5 -52 -30 -95 -55 -95 -56 -232 -126 -248 -126 -8 0 -9 11 -5 33 112 539 190
1267 227 2105 13 297 8 355 -34 409 -21 27 -22 36 -22 273 l0 245 -73 375
c-277 1427 -342 1750 -433 2156 -85 380 -142 551 -283 848 -106 222 -313 591
-464 826 l-55 85 22 195 c35 320 44 498 38 775 -5 241 -18 380 -46 507 -8 32
-11 959 -11 2963 l0 2915 45 0 c42 0 44 1 49 33 8 48 156 1607 156 1640 l0 27
-125 0 -125 0 2 2188 3 2187 38 220 c126 744 231 1196 382 1651 119 359 268
720 426 1037 97 192 109 232 109 357 0 405 -338 876 -970 1351 -350 263 -596
404 -945 542 -949 374 -2411 623 -4215 718 -195 10 -1457 20 -1605 13z m-3055
-3704 c481 -20 793 -41 1830 -125 1446 -117 1971 -145 2700 -145 564 0 861
-18 1255 -76 1074 -158 2013 -605 2738 -1304 445 -429 833 -1000 1059 -1562
l53 -133 3 -1607 2 -1608 -419 0 -418 0 -40 123 c-59 178 -105 292 -193 474
-130 270 -270 491 -455 723 -120 151 -391 425 -536 543 -524 426 -1127 686
-1805 778 -228 31 -630 31 -858 0 -678 -92 -1281 -352 -1805 -778 -145 -118
-416 -392 -536 -543 -180 -225 -320 -446 -448 -707 l-73 -149 -39 99 c-122
314 -330 670 -560 957 -120 151 -391 425 -536 543 -524 426 -1127 686 -1805
778 -130 18 -208 22 -429 22 -221 0 -299 -4 -429 -22 -678 -92 -1281 -352
-1805 -778 -145 -118 -416 -392 -536 -543 -319 -399 -549 -844 -689 -1335
l-43 -150 -182 -3 -181 -2 0 127 c0 332 57 920 136 1395 43 265 297 1407 374
1689 136 492 312 1044 497 1557 l66 182 127 153 c239 286 247 293 870 748
l564 412 116 39 c378 128 840 202 1435 231 158 8 777 6 995 -3z m-900 -3875
c387 -51 717 -151 1065 -325 365 -182 628 -371 915 -659 394 -396 696 -885
869 -1411 33 -98 56 -130 96 -130 42 0 71 36 111 137 172 435 454 863 794
1204 287 288 550 477 915 659 348 174 671 272 1070 326 98 14 199 18 410 18
211 0 312 -4 410 -18 399 -54 722 -152 1070 -326 365 -182 628 -371 915 -659
550 -552 906 -1265 1020 -2044 151 -1037 -125 -2065 -772 -2875 -126 -157
-376 -408 -523 -526 -435 -347 -944 -588 -1460 -691 -243 -48 -362 -59 -660
-59 -298 0 -417 11 -660 59 -527 105 -1061 362 -1491 717 -141 116 -372 352
-491 500 -274 342 -490 736 -622 1138 -33 98 -56 130 -96 130 -42 0 -71 -36
-111 -137 -123 -311 -322 -650 -546 -931 -126 -157 -376 -408 -523 -526 -435
-347 -944 -588 -1460 -691 -243 -48 -362 -59 -660 -59 -211 0 -312 4 -410 18
-399 54 -722 152 -1070 326 -365 182 -628 371 -915 659 -550 552 -906 1265
-1020 2044 -151 1037 126 2067 773 2875 181 226 455 486 678 644 516 365 1075
573 1684 628 147 13 548 4 695 -15z m-3911 -4522 c64 -264 147 -493 271 -750
191 -395 408 -701 720 -1014 301 -302 580 -505 945 -687 367 -183 738 -294
1170 -348 194 -25 586 -25 780 0 432 54 803 165 1170 348 365 182 644 385 945
687 307 308 523 611 713 998 l73 149 39 -99 c122 -314 330 -670 560 -957 120
-151 391 -425 536 -543 470 -382 1010 -634 1599 -746 222 -42 375 -55 635 -55
260 0 413 13 635 55 589 112 1129 364 1599 746 145 118 416 392 536 543 394
493 651 1055 776 1698 l22 112 363 0 364 0 0 -2763 0 -2764 -94 -66 c-52 -37
-109 -74 -127 -82 -46 -19 -35 -19 63 5 110 26 338 26 338 0 0 -19 -655 -419
-1128 -689 -1996 -1138 -3961 -1937 -5527 -2245 -428 -84 -608 -108 -1355
-176 -1082 -99 -1850 -185 -2643 -295 -279 -39 -362 -44 -371 -19 -11 28 -7
32 47 52 109 41 326 85 1481 303 1256 236 2110 408 2859 575 92 20 166 39 164
41 -2 1 -39 -1 -83 -7 -376 -45 -820 -64 -1353 -57 -429 6 -626 15 -1056 52
-1943 168 -3839 651 -5194 1326 -385 191 -704 385 -931 565 -188 149 -690 695
-690 750 0 8 8 14 18 14 31 0 222 -98 355 -184 957 -609 2362 -1222 3645
-1591 1054 -302 2074 -483 3127 -554 462 -32 1117 -37 1540 -14 l130 8 -125 7
c-77 4 -266 30 -490 68 -2654 446 -4745 1091 -5805 1793 -621 410 -1061 1118
-1315 2112 -161 630 -250 1345 -290 2330 -12 298 -26 1466 -17 1489 6 14 28
16 174 16 l169 0 33 -137z m-830 -3220 c-12 -128 -24 -231 -27 -229 -2 3 7
316 20 698 l23 693 3 -465 c3 -422 1 -486 -19 -697z m12671 -4988 l0 -95 -270
0 -270 0 0 -115 0 -115 235 0 235 0 0 -100 0 -100 -235 0 -235 0 0 -205 0
-205 -110 0 -110 0 0 515 0 515 380 0 380 0 0 -95z m960 8 l0 -88 -279 -330
-279 -330 284 -3 284 -2 0 -95 0 -95 -440 0 -440 0 0 88 0 87 279 330 278 330
-254 3 -253 2 0 95 0 95 410 0 410 0 0 -87z m-14405 -3998 c103 -30 263 -44
502 -45 l152 0 16 -77 c10 -43 48 -217 87 -388 38 -170 82 -382 98 -470 39
-210 82 -402 131 -583 47 -172 146 -478 164 -507 13 -20 105 -300 106 -320 0
-5 -17 -13 -38 -17 -71 -13 -677 -43 -843 -42 -151 1 -175 3 -285 32 -73 20
-125 39 -133 49 -25 34 -87 271 -121 463 -39 215 -68 482 -91 820 -15 218 -29
876 -23 1056 l6 151 91 -48 c50 -26 132 -60 181 -74z m17443 -392 c-35 -749
-129 -1557 -231 -2003 l-12 -55 -80 -23 c-142 -40 -257 -55 -400 -49 -393 17
-737 39 -803 53 -88 18 -122 14 -168 -21 -39 -30 -50 -31 -57 -5 -5 21 26 53
105 108 46 32 134 129 157 174 8 16 25 35 38 43 12 9 23 24 23 35 0 22 77 181
117 241 l26 39 -9 337 c-5 186 -8 356 -9 378 0 37 19 362 31 550 l5 80 357 0
c303 0 372 3 457 19 211 39 301 79 395 176 36 37 65 68 65 69 0 0 -3 -65 -7
-146z m-10334 -5927 c-6 -16 -541 -199 -554 -191 -12 8 -160 191 -160 198 0 4
162 7 360 7 309 0 359 -2 354 -14z m-732 -253 c-53 -18 -100 -33 -104 -33 -9
0 -2 20 46 123 l36 79 59 -69 59 -68 -96 -32z m604 11 l-61 -116 -87 -36 -87
-35 -21 24 c-52 62 -102 130 -99 133 2 2 76 29 164 60 88 31 176 63 195 71 19
8 40 14 47 14 6 1 -17 -51 -51 -115z m4104 -19 c24 -52 41 -97 38 -100 -2 -3
-48 10 -101 28 l-96 32 57 68 c31 37 57 67 58 67 0 0 20 -43 44 -95z m-518
-17 c112 -39 204 -72 206 -74 8 -6 -123 -154 -132 -151 -6 2 -45 17 -87 33
l-75 28 -63 118 c-34 65 -60 118 -57 118 3 0 96 -32 208 -72z m-3959 -99 c31
-36 57 -70 57 -75 0 -5 -35 -23 -78 -41 l-77 -32 -77 77 c-43 42 -76 78 -74
80 11 10 182 69 187 63 3 -3 31 -36 62 -72z m-219 -167 c21 -24 30 -18 -122
-77 l-72 -28 -30 28 c-17 16 -30 34 -30 39 0 6 19 52 42 103 l41 92 76 -68
c42 -38 84 -78 95 -89z m4556 131 c41 -14 78 -29 82 -32 3 -3 -26 -41 -65 -84
l-72 -78 -77 33 c-43 18 -79 36 -80 39 -4 10 115 149 127 149 6 0 44 -12 85
-27z m-4102 -88 c-9 -19 -14 -22 -25 -14 -18 15 -16 27 5 32 31 8 32 7 20 -18z
m4380 -67 l41 -93 -34 -34 -33 -34 -106 42 -105 43 62 57 c84 78 121 110 128
111 3 0 25 -42 47 -92z m-4459 8 l33 -34 -26 -45 c-20 -34 -34 -46 -58 -51
-29 -6 -37 -1 -85 46 l-52 52 72 32 c40 18 74 33 78 33 3 1 20 -14 38 -33z
m3812 -7 c17 -9 18 -13 8 -26 -12 -13 -14 -13 -26 3 -24 32 -16 42 18 23z
m164 -70 c41 -18 75 -35 75 -38 0 -4 -21 -28 -48 -54 -43 -42 -50 -46 -83 -41
-30 5 -39 13 -58 51 l-21 44 27 34 c16 19 29 35 31 35 1 0 36 -14 77 -31z
m-4204 -41 c27 -23 46 -45 42 -48 -5 -4 -57 -24 -118 -44 l-110 -36 -40 41
c-22 23 -35 43 -30 45 6 3 48 22 95 43 47 22 91 39 98 40 7 1 36 -18 63 -41z
m-372 -92 l73 -74 -123 -41 c-68 -22 -127 -41 -131 -41 -3 0 17 52 45 115 28
63 54 115 57 115 3 0 38 -33 79 -74z m4858 12 c54 -23 100 -43 103 -45 2 -2
-14 -21 -35 -43 l-40 -39 -115 36 c-63 20 -117 38 -120 40 -6 6 86 93 99 93 5
0 54 -19 108 -42z m-4389 -138 c-34 -66 -65 -120 -68 -120 -9 0 -154 149 -149
154 3 2 193 61 277 85 2 1 -25 -53 -60 -119z m4736 1 c26 -57 45 -105 44 -106
-2 -1 -59 16 -127 37 l-124 40 74 74 c40 40 76 70 80 66 4 -4 28 -54 53 -111z
m-523 -7 c68 -20 127 -39 131 -43 4 -4 -26 -40 -67 -81 -45 -45 -78 -70 -83
-65 -19 21 -123 225 -114 225 5 0 64 -16 133 -36z"/>
<path d="M16280 26684 c-646 -61 -1200 -307 -1637 -728 -415 -399 -670 -896
-760 -1483 -23 -150 -23 -526 0 -676 91 -591 346 -1087 766 -1489 825 -791
2100 -954 3111 -397 641 353 1109 967 1265 1663 48 217 59 315 59 561 0 314
-35 529 -129 805 -316 921 -1108 1571 -2097 1721 -129 19 -470 33 -578 23z
m456 -145 c554 -54 1094 -307 1494 -700 352 -346 592 -789 680 -1257 30 -160
40 -270 40 -445 0 -274 -36 -496 -121 -752 -295 -889 -1105 -1539 -2055 -1650
-160 -19 -441 -19 -594 -1 -846 102 -1569 609 -1940 1361 -117 236 -201 525
-229 787 -14 125 -14 381 0 506 59 543 311 1060 709 1451 395 388 936 644
1480 700 124 12 410 13 536 0z"/>
<path d="M17080 24914 c-369 -72 -644 -337 -747 -722 -24 -87 -27 -115 -27
-272 0 -157 3 -185 27 -272 94 -349 336 -608 654 -700 64 -19 103 -23 218 -23
115 0 154 4 218 23 318 92 560 351 654 700 24 87 27 115 27 272 0 157 -3 185
-27 272 -93 347 -336 608 -649 699 -72 20 -286 35 -348 23z m149 -113 c75 -39
101 -122 77 -240 -71 -340 -509 -653 -666 -475 -43 50 -55 104 -41 189 51 310
431 627 630 526z"/>
<path d="M22610 26544 c-646 -61 -1200 -307 -1637 -728 -415 -399 -670 -896
-760 -1483 -23 -150 -23 -526 0 -676 91 -591 346 -1087 766 -1489 825 -791
2100 -954 3111 -397 641 353 1109 967 1265 1663 48 217 59 315 59 561 0 314
-35 529 -129 805 -316 921 -1108 1571 -2097 1721 -129 19 -470 33 -578 23z
m456 -145 c554 -54 1094 -307 1494 -700 352 -346 592 -789 680 -1257 30 -160
40 -270 40 -445 0 -274 -36 -496 -121 -752 -295 -889 -1105 -1539 -2055 -1650
-160 -19 -441 -19 -594 -1 -846 102 -1569 609 -1940 1361 -117 236 -201 525
-229 787 -14 125 -14 381 0 506 59 543 311 1060 709 1451 395 388 936 644
1480 700 124 12 410 13 536 0z"/>
<path d="M22090 24834 c-369 -72 -644 -337 -747 -722 -24 -87 -27 -115 -27
-272 0 -157 3 -185 27 -272 94 -349 336 -608 654 -700 64 -19 103 -23 218 -23
115 0 154 4 218 23 318 92 560 351 654 700 24 87 27 115 27 272 0 157 -3 185
-27 272 -93 347 -336 608 -649 699 -72 20 -286 35 -348 23z m149 -113 c75 -39
101 -122 77 -240 -71 -340 -509 -653 -666 -475 -43 50 -55 104 -41 189 51 310
431 627 630 526z"/>
<path d="M16920 18286 c0 -11 199 -146 340 -231 550 -331 1210 -572 1850 -675
335 -54 779 -74 1100 -51 696 51 1326 229 1985 561 227 114 582 317 572 326
-2 2 -48 -16 -101 -41 -315 -148 -765 -301 -1185 -404 -1230 -304 -2455 -274
-3556 86 -302 98 -648 244 -902 380 -57 30 -103 52 -103 49z"/>
<path d="M27011 17600 c-55 -28 -136 -77 -180 -109 -43 -33 -93 -67 -110 -76
-17 -8 -31 -18 -31 -21 0 -10 69 31 143 88 44 32 129 83 190 113 61 30 106 55
100 55 -6 0 -56 -23 -112 -50z"/>
<path d="M26568 17334 c-49 -24 -88 -46 -88 -49 0 -3 41 15 90 40 50 25 90 47
90 50 0 7 5 9 -92 -41z"/>
<path d="M26298 17194 c-71 -35 -128 -66 -128 -69 0 -3 59 24 130 60 72 36
130 67 130 70 0 7 8 11 -132 -61z"/>
<path d="M25918 16999 c-98 -49 -178 -91 -178 -94 0 -3 81 35 180 85 99 50
180 92 180 95 0 7 13 13 -182 -86z"/>
<path d="M25438 16754 c-115 -57 -208 -106 -208 -109 0 -3 95 42 210 100 116
58 210 107 210 110 0 7 16 14 -212 -101z"/>
<path d="M25015 16538 c-55 -29 -134 -64 -175 -79 -84 -31 -83 -39 1 -10 57
19 279 128 279 136 0 7 6 9 -105 -47z"/>
<path d="M24625 16390 c-27 -10 -43 -18 -35 -18 8 0 38 8 65 18 28 10 43 18
35 18 -8 0 -37 -8 -65 -18z"/>
<path d="M24465 16340 c-27 -10 -43 -18 -35 -18 8 0 38 8 65 18 28 10 43 18
35 18 -8 0 -37 -8 -65 -18z"/>
<path d="M24275 16280 c-27 -10 -43 -18 -35 -18 8 0 38 8 65 18 28 10 43 18
35 18 -8 0 -37 -8 -65 -18z"/>
<path d="M24085 16220 c-27 -10 -43 -18 -35 -18 8 0 38 8 65 18 28 10 43 18
35 18 -8 0 -37 -8 -65 -18z"/>
<path d="M23925 16170 c-27 -10 -43 -18 -35 -18 8 0 38 8 65 18 28 10 43 18
35 18 -8 0 -37 -8 -65 -18z"/>
<path d="M23735 16110 c-27 -10 -43 -18 -35 -18 8 0 38 8 65 18 28 10 43 18
35 18 -8 0 -37 -8 -65 -18z"/>
<path d="M23545 16050 c-27 -10 -43 -18 -35 -18 8 0 38 8 65 18 28 10 43 18
35 18 -8 0 -37 -8 -65 -18z"/>
<path d="M23385 16000 c-27 -10 -43 -18 -35 -18 8 0 38 8 65 18 28 10 43 18
35 18 -8 0 -37 -8 -65 -18z"/>
<path d="M23285 15970 c-13 -5 -14 -9 -5 -9 8 0 24 4 35 9 13 5 14 9 5 9 -8 0
-24 -4 -35 -9z"/>
<path d="M23238 15953 c7 -3 16 -2 19 1 4 3 -2 6 -13 5 -11 0 -14 -3 -6 -6z"/>
<path d="M23137 15933 c-32 -9 -56 -17 -54 -20 5 -4 129 26 136 33 8 7 -23 2
-82 -13z"/>
<path d="M22930 15880 c-58 -15 -98 -28 -90 -29 8 0 65 12 125 28 61 16 101
29 90 29 -11 0 -67 -13 -125 -28z"/>
<path d="M22760 15840 c-20 -6 -21 -8 -5 -8 11 0 31 4 45 8 20 6 21 8 5 8 -11
0 -31 -4 -45 -8z"/>
<path d="M22708 15823 c7 -3 16 -2 19 1 4 3 -2 6 -13 5 -11 0 -14 -3 -6 -6z"/>
<path d="M22630 15810 c-20 -6 -21 -8 -5 -8 11 0 31 4 45 8 20 6 21 8 5 8 -11
0 -31 -4 -45 -8z"/>
<path d="M22568 15793 c6 -2 18 -2 25 0 6 3 1 5 -13 5 -14 0 -19 -2 -12 -5z"/>
<path d="M22518 15783 c6 -2 18 -2 25 0 6 3 1 5 -13 5 -14 0 -19 -2 -12 -5z"/>
<path d="M22468 15773 c6 -2 18 -2 25 0 6 3 1 5 -13 5 -14 0 -19 -2 -12 -5z"/>
<path d="M22385 15760 c-27 -7 -27 -8 -5 -8 14 0 36 4 50 8 20 6 21 8 5 8 -11
0 -33 -4 -50 -8z"/>
<path d="M22318 15743 c6 -2 18 -2 25 0 6 3 1 5 -13 5 -14 0 -19 -2 -12 -5z"/>
<path d="M22268 15733 c6 -2 18 -2 25 0 6 3 1 5 -13 5 -14 0 -19 -2 -12 -5z"/>
<path d="M22213 15723 c9 -2 23 -2 30 0 6 3 -1 5 -18 5 -16 0 -22 -2 -12 -5z"/>
<path d="M22158 15713 c6 -2 18 -2 25 0 6 3 1 5 -13 5 -14 0 -19 -2 -12 -5z"/>
<path d="M22103 15703 c9 -2 23 -2 30 0 6 3 -1 5 -18 5 -16 0 -22 -2 -12 -5z"/>
<path d="M22043 15693 c9 -2 23 -2 30 0 6 3 -1 5 -18 5 -16 0 -22 -2 -12 -5z"/>
<path d="M21983 15683 c9 -2 23 -2 30 0 6 3 -1 5 -18 5 -16 0 -22 -2 -12 -5z"/>
<path d="M21923 15673 c9 -2 23 -2 30 0 6 3 -1 5 -18 5 -16 0 -22 -2 -12 -5z"/>
<path d="M21853 15663 c9 -2 25 -2 35 0 9 3 1 5 -18 5 -19 0 -27 -2 -17 -5z"/>
<path d="M21793 15653 c9 -2 23 -2 30 0 6 3 -1 5 -18 5 -16 0 -22 -2 -12 -5z"/>
<path d="M21723 15643 c9 -2 25 -2 35 0 9 3 1 5 -18 5 -19 0 -27 -2 -17 -5z"/>
<path d="M21653 15633 c9 -2 25 -2 35 0 9 3 1 5 -18 5 -19 0 -27 -2 -17 -5z"/>
<path d="M21583 15623 c9 -2 25 -2 35 0 9 3 1 5 -18 5 -19 0 -27 -2 -17 -5z"/>
<path d="M21503 15613 c9 -2 25 -2 35 0 9 3 1 5 -18 5 -19 0 -27 -2 -17 -5z"/>
<path d="M21418 15603 c12 -2 30 -2 40 0 9 3 -1 5 -23 4 -22 0 -30 -2 -17 -4z"/>
<path d="M21338 15593 c12 -2 30 -2 40 0 9 3 -1 5 -23 4 -22 0 -30 -2 -17 -4z"/>
<path d="M21248 15583 c12 -2 32 -2 45 0 12 2 2 4 -23 4 -25 0 -35 -2 -22 -4z"/>
<path d="M21148 15573 c12 -2 32 -2 45 0 12 2 2 4 -23 4 -25 0 -35 -2 -22 -4z"/>
<path d="M21043 15563 c15 -2 37 -2 50 0 12 2 0 4 -28 4 -27 0 -38 -2 -22 -4z"/>
<path d="M20933 15553 c15 -2 37 -2 50 0 12 2 0 4 -28 4 -27 0 -38 -2 -22 -4z"/>
<path d="M20798 15543 c17 -2 47 -2 65 0 17 2 3 4 -33 4 -36 0 -50 -2 -32 -4z"/>
<path d="M20647 15533 c18 -2 50 -2 70 0 21 2 7 4 -32 4 -38 0 -55 -2 -38 -4z"/>
<path d="M22989 4638 c17 -24 42 -56 56 -73 23 -26 21 -21 -10 43 -27 54 -40
72 -56 72 -19 0 -18 -3 10 -42z"/>
<path d="M22958 3103 c7 -3 16 -2 19 1 4 3 -2 6 -13 5 -11 0 -14 -3 -6 -6z"/>
<path d="M17160 3086 c0 -2 7 -6 15 -10 8 -3 15 -1 15 4 0 6 -7 10 -15 10 -8
0 -15 -2 -15 -4z"/>
</g>
</svg>
